<svg xmlns="http://www.w3.org/2000/svg" width="22.167" height="21.308" viewBox="0 0 22.167 21.308"><defs><style>.a{fill-rule:evenodd;}</style></defs><path class="a" d="M13.416-34.108H8.752v-1.68H9.857v-3.929H8.752V-41.4H12.31v5.608h1.106ZM11.107-44.739a1.29,1.29,0,0,1,1.33,1.264,1.3,1.3,0,0,1-1.33,1.279,1.289,1.289,0,0,1-1.314-1.279,1.277,1.277,0,0,1,1.314-1.264Zm8.844-3.367H2.217A2.176,2.176,0,0,0,0-45.974V-33.19a2.176,2.176,0,0,0,2.217,2.131H5.54V-26.8l4.435-4.261h9.975a2.175,2.175,0,0,0,2.216-2.131V-45.974a2.175,2.175,0,0,0-2.216-2.131Z" transform="translate(0 48.105)"/></svg>